<?xml version="1.0" encoding="UTF-8"?>
<svg version="1.1" xmlns="http://www.w3.org/2000/svg" width="512" height="512">
<path d="M0 0 C1.23193455 -0.00706559 2.46386909 -0.01413118 3.73313498 -0.02141088 C5.09203991 -0.01915975 6.45094452 -0.01671328 7.80984879 -0.01409245 C9.25983273 -0.0185466 10.70981423 -0.02386122 12.15979218 -0.02996117 C16.14030274 -0.04413031 20.12073517 -0.04580467 24.10126734 -0.04536426 C28.3958882 -0.04701342 32.69047696 -0.06008174 36.98508072 -0.07155704 C46.37352674 -0.09439802 55.76195015 -0.10232659 65.15042019 -0.10738349 C71.01370899 -0.11064137 76.87699124 -0.11716438 82.74027634 -0.12438488 C98.97761575 -0.14394914 115.21494907 -0.16035453 131.45230103 -0.16326141 C132.49117384 -0.16344898 133.53004665 -0.16363655 134.60040046 -0.16382981 C136.7063969 -0.16419605 138.81239333 -0.16455975 140.91838977 -0.16492092 C141.96379256 -0.16510373 143.00919535 -0.16528654 144.08627701 -0.16547489 C145.65629744 -0.16574572 145.65629744 -0.16574572 147.25803545 -0.16602201 C164.21912076 -0.16956388 181.18007912 -0.19658789 198.1411204 -0.23397278 C215.55937659 -0.27205791 232.97756979 -0.2914189 250.39586854 -0.29172093 C260.17379513 -0.29230543 269.95157026 -0.30079284 279.72945786 -0.32971859 C288.05508657 -0.35423513 296.38050856 -0.36151347 304.70616361 -0.34647106 C308.95255421 -0.33930344 313.19853664 -0.34015308 317.44488144 -0.36288166 C321.33623071 -0.38351026 325.22685902 -0.38083577 329.11820081 -0.36000682 C330.52196403 -0.35651929 331.92577968 -0.36139073 333.32947418 -0.37571125 C343.48570048 -0.47260429 350.40695004 1.23431853 358.56186295 7.33037472 C359.57313248 8.34744503 359.57313248 8.34744503 360.6048317 9.38506222 C361.63543716 10.37892941 361.63543716 10.37892941 362.68686295 11.39287472 C368.54950116 19.3765045 370.53443937 27.0288026 370.42052078 36.80377865 C370.42761517 37.91276435 370.43470956 39.02175006 370.44201893 40.16434139 C370.45951451 43.8522893 370.44153589 47.53917153 370.42343521 51.22710323 C370.42857722 53.88244681 370.43567279 56.53772052 370.44511795 59.19304562 C370.4634351 65.63932865 370.45502246 72.08530728 370.43702973 78.53158063 C370.42296841 83.77295901 370.41911848 89.01425509 370.422472 94.25565052 C370.42294944 95.0033958 370.42342688 95.75114108 370.42391879 96.5215453 C370.42494519 98.04085813 370.42600055 99.56017095 370.42708456 101.07948374 C370.43563947 114.49447357 370.41901536 127.909317 370.38925552 141.3242712 C370.36041527 154.32498478 370.35333887 167.32548753 370.36874771 180.32622433 C370.38552842 194.50372202 370.3895255 208.68111978 370.37203735 222.85862011 C370.37019307 224.37184329 370.36835835 225.88506648 370.36653328 227.39828968 C370.36562119 228.14271158 370.3647091 228.88713347 370.36376937 229.65411361 C370.35817603 234.88638777 370.36145985 240.11861295 370.36807823 245.35088444 C370.37582891 251.73124154 370.36899656 258.11139153 370.34390319 264.49170703 C370.33144865 267.74369679 370.32737648 270.99530073 370.33644485 274.24731159 C370.3451587 277.77965378 370.32914897 281.3110649 370.30699539 284.84332943 C370.31523616 285.86114469 370.32347693 286.87895994 370.33196741 287.92761809 C370.22701729 297.02007186 367.79236806 304.9866647 361.4954567 311.72881222 C355.30178679 317.29743286 348.37829675 320.52515708 339.97055435 320.487113 C338.28949097 320.48688641 338.28949097 320.48688641 336.57446671 320.48665524 C334.78352081 320.47117138 334.78352081 320.47117138 332.9563942 320.45537472 C331.72190536 320.45254482 330.48741653 320.44971493 329.21551895 320.44679928 C325.2826902 320.43562744 321.35009132 320.41052786 317.4173317 320.38506222 C314.74676211 320.37390047 312.07619468 320.36590341 309.40561295 320.35771847 C302.86777444 320.33569787 296.3300695 320.30224981 289.7923317 320.26006222 C289.53706711 321.09590847 289.28180252 321.93175472 289.01880264 322.79292965 C287.67340428 326.59626024 285.98445715 330.14135534 284.16879654 333.73418331 C283.8018046 334.46840826 283.43481266 335.20263321 283.05669975 335.9591074 C281.87594814 338.31912604 280.68973857 340.67635136 279.5032692 343.03349972 C278.77023987 344.49661528 278.03757209 345.95991204 277.30527115 347.4233923 C274.59700063 352.8294767 271.88174736 358.2320607 269.1673317 363.63506222 C263.1035817 375.72131222 257.0398317 387.80756222 250.7923317 400.26006222 C197.3323317 400.26006222 143.8723317 400.26006222 88.7923317 400.26006222 C82.3573317 387.43131222 75.9223317 374.60256222 69.2923317 361.38506222 C67.25625748 357.33112179 65.22018326 353.27718136 63.12240982 349.10039425 C60.64682388 344.15825558 60.64682388 344.15825558 59.48996353 341.84621334 C58.6789337 340.22723058 57.86631667 338.60904236 57.05246353 336.99147701 C55.82206352 334.54524921 54.59667849 332.09657005 53.37240982 329.64726925 C53.00704369 328.9237332 52.64167755 328.20019714 52.26523972 327.45473576 C49.7923317 322.48811489 49.7923317 322.48811489 49.7923317 320.26006222 C49.11296555 320.27116528 48.4335994 320.28226833 47.73364639 320.29370785 C40.62785435 320.40479496 33.52231118 320.47993409 26.41586685 320.53472042 C23.76797837 320.55977981 21.12015848 320.59383656 18.47250748 320.63725948 C14.65446366 320.69828501 10.83733876 320.72635954 7.0188942 320.74834347 C5.84557541 320.77414989 4.67225662 320.79995632 3.46338272 320.82654476 C-5.5734279 320.8295908 -11.76461459 318.58138587 -18.97719955 313.18974972 C-19.98846909 312.17267941 -19.98846909 312.17267941 -21.0201683 311.13506222 C-21.70723862 310.47248409 -22.39430893 309.80990597 -23.10219955 309.12724972 C-28.96483777 301.14361994 -30.94977598 293.49132183 -30.83585739 283.71634579 C-30.84295178 282.60736008 -30.85004617 281.49837438 -30.85735554 280.35578305 C-30.87485112 276.66783513 -30.8568725 272.98095291 -30.83877182 269.2930212 C-30.84391383 266.63767763 -30.8510094 263.98240392 -30.86045456 261.32707882 C-30.87877171 254.88079578 -30.87035906 248.43481716 -30.85236634 241.9885438 C-30.83830502 236.74716543 -30.83445509 231.50586934 -30.83780861 226.26447392 C-30.83828605 225.51672864 -30.83876349 224.76898336 -30.8392554 223.99857913 C-30.8402818 222.4792663 -30.84133716 220.95995349 -30.84242117 219.4406407 C-30.85097608 206.02565087 -30.83435197 192.61080743 -30.80459213 179.19585323 C-30.77575187 166.19513966 -30.76867548 153.19463691 -30.78408432 140.19390011 C-30.80086503 126.01640241 -30.80486211 111.83900466 -30.78737396 97.66150433 C-30.78552968 96.14828115 -30.78369496 94.63505796 -30.78186989 93.12183475 C-30.7809578 92.37741286 -30.78004571 91.63299096 -30.77910598 90.86601083 C-30.77351264 85.63373666 -30.77679646 80.40151149 -30.78341484 75.16924 C-30.79116552 68.7888829 -30.78433317 62.40873291 -30.7592398 56.0284174 C-30.74678526 52.77642764 -30.74271309 49.5248237 -30.75178146 46.27281284 C-30.76049531 42.74047065 -30.74448558 39.20905954 -30.722332 35.67679501 C-30.73057277 34.65897975 -30.73881353 33.64116449 -30.74730402 32.59250635 C-30.6423539 23.50005257 -28.20770467 15.53345974 -21.9107933 8.79131222 C-15.56028271 3.08167884 -8.59354023 0.01579261 0 0 Z " fill="#1E293B" transform="translate(86.20766830444336,39.7399377822876)"/>
<path d="M0 0 C79.2 0 158.4 0 240 0 C238.41288637 4.76134088 236.62253192 9.0296051 234.37646484 13.47412109 C234.0094729 14.20834604 233.64248096 14.94257099 233.26436806 15.69904518 C232.08361645 18.05906382 230.89740687 20.41628914 229.7109375 22.7734375 C228.97790818 24.23655306 228.2452404 25.69984982 227.51293945 27.16333008 C224.80466893 32.56941448 222.08941566 37.97199848 219.375 43.375 C213.31125 55.46125 207.2475 67.5475 201 80 C147.54 80 94.08 80 39 80 C32.565 67.17125 26.13 54.3425 19.5 41.125 C16.44588867 35.04408936 16.44588867 35.04408936 13.33007812 28.84033203 C10.85449219 23.89819336 10.85449219 23.89819336 9.69763184 21.58615112 C8.886602 19.96716836 8.07398497 18.34898014 7.26013184 16.73141479 C6.02973182 14.28518699 4.8043468 11.83650783 3.58007812 9.38720703 C3.21471199 8.66367098 2.84934586 7.94013493 2.47290802 7.19467354 C0 2.22805267 0 2.22805267 0 0 Z " fill="#3B82F6" transform="translate(136,360)"/>
<path d="M0 0 C26.73 0 53.46 0 81 0 C81 7.59 81 15.18 81 23 C64.17 23 47.34 23 30 23 C30 29.93 30 36.86 30 44 C45.84 44 61.68 44 78 44 C78 51.59 78 59.18 78 67 C62.16 67 46.32 67 30 67 C30 75.91 30 84.82 30 94 C47.49 94 64.98 94 83 94 C83 101.59 83 109.18 83 117 C55.61 117 28.22 117 0 117 C0 78.39 0 39.78 0 0 Z " fill="#FDFDFD" transform="translate(162,139)"/>
<path d="M0 0 C26.73 0 53.46 0 81 0 C81 7.59 81 15.18 81 23 C64.17 23 47.34 23 30 23 C30 30.26 30 37.52 30 45 C45.84 45 61.68 45 78 45 C78 52.59 78 60.18 78 68 C62.16 68 46.32 68 30 68 C30 84.17 30 100.34 30 117 C20.1 117 10.2 117 0 117 C0 78.39 0 39.78 0 0 Z " fill="#FDFDFD" transform="translate(271,138)"/>
</svg>
